<mxfile host="Electron" agent="Mozilla/5.0 (Windows NT 10.0; Win64; x64) AppleWebKit/537.36 (KHTML, like Gecko) draw.io/24.7.8 Chrome/128.0.6613.36 Electron/32.0.1 Safari/537.36" version="24.7.8">
  <diagram id="C5RBs43oDa-KdzZeNtuy" name="Page-1">
    <mxGraphModel dx="1290" dy="1798" grid="1" gridSize="10" guides="1" tooltips="1" connect="1" arrows="1" fold="1" page="1" pageScale="1" pageWidth="827" pageHeight="1169" math="0" shadow="0">
      <root>
        <mxCell id="WIyWlLk6GJQsqaUBKTNV-0" />
        <mxCell id="WIyWlLk6GJQsqaUBKTNV-1" parent="WIyWlLk6GJQsqaUBKTNV-0" />
        <mxCell id="JzfOXZyKx7kJxtPWHxZc-0" value="Building" style="swimlane;fontStyle=1;align=center;verticalAlign=top;childLayout=stackLayout;horizontal=1;startSize=26;horizontalStack=0;resizeParent=1;resizeParentMax=0;resizeLast=0;collapsible=1;marginBottom=0;whiteSpace=wrap;html=1;" vertex="1" parent="WIyWlLk6GJQsqaUBKTNV-1">
          <mxGeometry x="190" y="130" width="270" height="220" as="geometry" />
        </mxCell>
        <mxCell id="JzfOXZyKx7kJxtPWHxZc-1" value="+ FloorCount: int&lt;div&gt;+ Elevators: List&amp;lt;Elevator&amp;gt;&lt;/div&gt;&lt;div&gt;- Passengers: List&amp;lt;Passenger&amp;gt;&lt;/div&gt;&lt;div&gt;- random: Random&lt;/div&gt;&lt;div&gt;- writer: StreamWriter&lt;/div&gt;" style="text;strokeColor=none;fillColor=none;align=right;verticalAlign=top;spacingLeft=4;spacingRight=4;overflow=hidden;rotatable=0;points=[[0,0.5],[1,0.5]];portConstraint=eastwest;whiteSpace=wrap;html=1;" vertex="1" parent="JzfOXZyKx7kJxtPWHxZc-0">
          <mxGeometry y="26" width="270" height="84" as="geometry" />
        </mxCell>
        <mxCell id="JzfOXZyKx7kJxtPWHxZc-2" value="" style="line;strokeWidth=1;fillColor=none;align=left;verticalAlign=middle;spacingTop=-1;spacingLeft=3;spacingRight=3;rotatable=0;labelPosition=right;points=[];portConstraint=eastwest;strokeColor=inherit;" vertex="1" parent="JzfOXZyKx7kJxtPWHxZc-0">
          <mxGeometry y="110" width="270" height="8" as="geometry" />
        </mxCell>
        <mxCell id="JzfOXZyKx7kJxtPWHxZc-3" value="&lt;div&gt;+ Building(floorCount: int, writer: StreamWriter): - + AddElevator(elevator: Elevator): void&lt;/div&gt;&lt;div&gt;+ GeneratePassengers(count: int): void&lt;/div&gt;&lt;div&gt;+ DispatchElevators(): void&lt;/div&gt;&lt;div&gt;+ GeneratePassengerCount(floorCount: int): int&lt;/div&gt;&lt;div&gt;+ DisplayInfo(): void&lt;/div&gt;" style="text;strokeColor=none;fillColor=none;align=right;verticalAlign=top;spacingLeft=4;spacingRight=4;overflow=hidden;rotatable=0;points=[[0,0.5],[1,0.5]];portConstraint=eastwest;whiteSpace=wrap;html=1;" vertex="1" parent="JzfOXZyKx7kJxtPWHxZc-0">
          <mxGeometry y="118" width="270" height="102" as="geometry" />
        </mxCell>
        <mxCell id="JzfOXZyKx7kJxtPWHxZc-4" value="Elevator" style="swimlane;fontStyle=1;align=center;verticalAlign=top;childLayout=stackLayout;horizontal=1;startSize=26;horizontalStack=0;resizeParent=1;resizeParentMax=0;resizeLast=0;collapsible=1;marginBottom=0;whiteSpace=wrap;html=1;" vertex="1" parent="WIyWlLk6GJQsqaUBKTNV-1">
          <mxGeometry x="590" y="130" width="670" height="260" as="geometry" />
        </mxCell>
        <mxCell id="JzfOXZyKx7kJxtPWHxZc-5" value="&lt;div&gt;+ Number: int&lt;/div&gt;&lt;div&gt;+ Capacity: int&lt;/div&gt;&lt;div&gt;+ CurrenfFloor: int&lt;/div&gt;&lt;div&gt;+ TargetFloor: int&lt;/div&gt;&lt;div&gt;+ Type: string&lt;/div&gt;&lt;div&gt;+ Passengers: List&amp;lt;Passenger&amp;gt;&lt;/div&gt;&lt;div&gt;+ Load: int&lt;/div&gt;&lt;div&gt;- writer: StreamWriter&lt;/div&gt;" style="text;strokeColor=none;fillColor=none;align=right;verticalAlign=top;spacingLeft=4;spacingRight=4;overflow=hidden;rotatable=0;points=[[0,0.5],[1,0.5]];portConstraint=eastwest;whiteSpace=wrap;html=1;" vertex="1" parent="JzfOXZyKx7kJxtPWHxZc-4">
          <mxGeometry y="26" width="670" height="124" as="geometry" />
        </mxCell>
        <mxCell id="JzfOXZyKx7kJxtPWHxZc-6" value="" style="line;strokeWidth=1;fillColor=none;align=left;verticalAlign=middle;spacingTop=-1;spacingLeft=3;spacingRight=3;rotatable=0;labelPosition=right;points=[];portConstraint=eastwest;strokeColor=inherit;" vertex="1" parent="JzfOXZyKx7kJxtPWHxZc-4">
          <mxGeometry y="150" width="670" height="8" as="geometry" />
        </mxCell>
        <mxCell id="JzfOXZyKx7kJxtPWHxZc-7" value="+ method(type): type&lt;div&gt;+ Elevator(number: int, capacity: int, floorCount: int, writer: StreamWriter): -&lt;/div&gt;&lt;div&gt;+ MoveToFloor(targeFloor: int): void&lt;/div&gt;&lt;div&gt;+ PickUpPassenger(passengers: List&amp;lt;Passenger&amp;gt;, allElevators: List&amp;lt;Elevator&amp;gt;, passengerToPickUp: Passenger): void&lt;/div&gt;&lt;div&gt;+ DeliverPassengers(): void&lt;/div&gt;&lt;div&gt;+ ToString(): override string&lt;/div&gt;" style="text;strokeColor=none;fillColor=none;align=right;verticalAlign=top;spacingLeft=4;spacingRight=4;overflow=hidden;rotatable=0;points=[[0,0.5],[1,0.5]];portConstraint=eastwest;whiteSpace=wrap;html=1;" vertex="1" parent="JzfOXZyKx7kJxtPWHxZc-4">
          <mxGeometry y="158" width="670" height="102" as="geometry" />
        </mxCell>
        <mxCell id="JzfOXZyKx7kJxtPWHxZc-9" value="Passenger" style="swimlane;fontStyle=1;align=center;verticalAlign=top;childLayout=stackLayout;horizontal=1;startSize=26;horizontalStack=0;resizeParent=1;resizeParentMax=0;resizeLast=0;collapsible=1;marginBottom=0;whiteSpace=wrap;html=1;" vertex="1" parent="WIyWlLk6GJQsqaUBKTNV-1">
          <mxGeometry x="180" y="460" width="310" height="160" as="geometry" />
        </mxCell>
        <mxCell id="JzfOXZyKx7kJxtPWHxZc-10" value="&lt;div&gt;+ Id: int&lt;/div&gt;&lt;div&gt;+ CurrentFloor: int&lt;/div&gt;&lt;div&gt;+ DesiredFloor: int&lt;/div&gt;&lt;div&gt;+ IsPickedUp: bool&lt;/div&gt;&lt;div&gt;+ IsDelivered: bool&lt;/div&gt;" style="text;strokeColor=none;fillColor=none;align=right;verticalAlign=top;spacingLeft=4;spacingRight=4;overflow=hidden;rotatable=0;points=[[0,0.5],[1,0.5]];portConstraint=eastwest;whiteSpace=wrap;html=1;" vertex="1" parent="JzfOXZyKx7kJxtPWHxZc-9">
          <mxGeometry y="26" width="310" height="84" as="geometry" />
        </mxCell>
        <mxCell id="JzfOXZyKx7kJxtPWHxZc-11" value="" style="line;strokeWidth=1;fillColor=none;align=left;verticalAlign=middle;spacingTop=-1;spacingLeft=3;spacingRight=3;rotatable=0;labelPosition=right;points=[];portConstraint=eastwest;strokeColor=inherit;" vertex="1" parent="JzfOXZyKx7kJxtPWHxZc-9">
          <mxGeometry y="110" width="310" height="8" as="geometry" />
        </mxCell>
        <mxCell id="JzfOXZyKx7kJxtPWHxZc-12" value="&lt;div&gt;+ Passenger(id: int, currentFloor: int, floorCount: int): -&lt;/div&gt;&lt;div&gt;+ ToString(): override string&lt;/div&gt;&lt;div&gt;&lt;br&gt;&lt;/div&gt;" style="text;strokeColor=none;fillColor=none;align=right;verticalAlign=top;spacingLeft=4;spacingRight=4;overflow=hidden;rotatable=0;points=[[0,0.5],[1,0.5]];portConstraint=eastwest;whiteSpace=wrap;html=1;" vertex="1" parent="JzfOXZyKx7kJxtPWHxZc-9">
          <mxGeometry y="118" width="310" height="42" as="geometry" />
        </mxCell>
        <mxCell id="JzfOXZyKx7kJxtPWHxZc-13" value="ElevatorSimulation" style="swimlane;fontStyle=1;align=center;verticalAlign=top;childLayout=stackLayout;horizontal=1;startSize=26;horizontalStack=0;resizeParent=1;resizeParentMax=0;resizeLast=0;collapsible=1;marginBottom=0;whiteSpace=wrap;html=1;" vertex="1" parent="WIyWlLk6GJQsqaUBKTNV-1">
          <mxGeometry x="160" y="-120" width="350" height="170" as="geometry" />
        </mxCell>
        <mxCell id="JzfOXZyKx7kJxtPWHxZc-14" value="- building: Building&lt;div&gt;- hours: int&lt;/div&gt;&lt;div&gt;- random: Random&lt;/div&gt;&lt;div&gt;- iterations: int&lt;/div&gt;&lt;div&gt;- writer: StreamWriter&lt;/div&gt;" style="text;strokeColor=none;fillColor=none;align=right;verticalAlign=top;spacingLeft=4;spacingRight=4;overflow=hidden;rotatable=0;points=[[0,0.5],[1,0.5]];portConstraint=eastwest;whiteSpace=wrap;html=1;" vertex="1" parent="JzfOXZyKx7kJxtPWHxZc-13">
          <mxGeometry y="26" width="350" height="84" as="geometry" />
        </mxCell>
        <mxCell id="JzfOXZyKx7kJxtPWHxZc-15" value="" style="line;strokeWidth=1;fillColor=none;align=left;verticalAlign=middle;spacingTop=-1;spacingLeft=3;spacingRight=3;rotatable=0;labelPosition=right;points=[];portConstraint=eastwest;strokeColor=inherit;" vertex="1" parent="JzfOXZyKx7kJxtPWHxZc-13">
          <mxGeometry y="110" width="350" height="8" as="geometry" />
        </mxCell>
        <mxCell id="JzfOXZyKx7kJxtPWHxZc-16" value="+ ElevatorSimulation(building: Building, writer: StreamWriter): -&lt;div&gt;+ StartSimulation(hours: int): void&lt;/div&gt;" style="text;strokeColor=none;fillColor=none;align=right;verticalAlign=top;spacingLeft=4;spacingRight=4;overflow=hidden;rotatable=0;points=[[0,0.5],[1,0.5]];portConstraint=eastwest;whiteSpace=wrap;html=1;" vertex="1" parent="JzfOXZyKx7kJxtPWHxZc-13">
          <mxGeometry y="118" width="350" height="52" as="geometry" />
        </mxCell>
        <mxCell id="JzfOXZyKx7kJxtPWHxZc-18" value="Program" style="swimlane;fontStyle=1;align=center;verticalAlign=top;childLayout=stackLayout;horizontal=1;startSize=26;horizontalStack=0;resizeParent=1;resizeParentMax=0;resizeLast=0;collapsible=1;marginBottom=0;whiteSpace=wrap;html=1;" vertex="1" parent="WIyWlLk6GJQsqaUBKTNV-1">
          <mxGeometry x="680" y="-90" width="240" height="110" as="geometry" />
        </mxCell>
        <mxCell id="JzfOXZyKx7kJxtPWHxZc-19" value="-" style="text;strokeColor=none;fillColor=none;align=right;verticalAlign=top;spacingLeft=4;spacingRight=4;overflow=hidden;rotatable=0;points=[[0,0.5],[1,0.5]];portConstraint=eastwest;whiteSpace=wrap;html=1;" vertex="1" parent="JzfOXZyKx7kJxtPWHxZc-18">
          <mxGeometry y="26" width="240" height="26" as="geometry" />
        </mxCell>
        <mxCell id="JzfOXZyKx7kJxtPWHxZc-20" value="" style="line;strokeWidth=1;fillColor=none;align=left;verticalAlign=middle;spacingTop=-1;spacingLeft=3;spacingRight=3;rotatable=0;labelPosition=right;points=[];portConstraint=eastwest;strokeColor=inherit;" vertex="1" parent="JzfOXZyKx7kJxtPWHxZc-18">
          <mxGeometry y="52" width="240" height="8" as="geometry" />
        </mxCell>
        <mxCell id="JzfOXZyKx7kJxtPWHxZc-21" value="+ Main(): static void&lt;div&gt;- GetValidInput(min: int, max: int): static int&lt;/div&gt;" style="text;strokeColor=none;fillColor=none;align=right;verticalAlign=top;spacingLeft=4;spacingRight=4;overflow=hidden;rotatable=0;points=[[0,0.5],[1,0.5]];portConstraint=eastwest;whiteSpace=wrap;html=1;" vertex="1" parent="JzfOXZyKx7kJxtPWHxZc-18">
          <mxGeometry y="60" width="240" height="50" as="geometry" />
        </mxCell>
        <mxCell id="JzfOXZyKx7kJxtPWHxZc-22" value="" style="rhombus;whiteSpace=wrap;html=1;fillColor=#000000;" vertex="1" parent="WIyWlLk6GJQsqaUBKTNV-1">
          <mxGeometry x="560" y="210" width="30" height="20" as="geometry" />
        </mxCell>
        <mxCell id="JzfOXZyKx7kJxtPWHxZc-24" value="" style="endArrow=none;html=1;rounded=0;entryX=0;entryY=0.5;entryDx=0;entryDy=0;exitX=0.993;exitY=0.773;exitDx=0;exitDy=0;exitPerimeter=0;" edge="1" parent="WIyWlLk6GJQsqaUBKTNV-1" source="JzfOXZyKx7kJxtPWHxZc-1" target="JzfOXZyKx7kJxtPWHxZc-22">
          <mxGeometry width="50" height="50" relative="1" as="geometry">
            <mxPoint x="480" y="290" as="sourcePoint" />
            <mxPoint x="530" y="240" as="targetPoint" />
          </mxGeometry>
        </mxCell>
        <mxCell id="JzfOXZyKx7kJxtPWHxZc-26" value="" style="endArrow=classic;html=1;rounded=0;exitX=0.477;exitY=0.997;exitDx=0;exitDy=0;exitPerimeter=0;" edge="1" parent="WIyWlLk6GJQsqaUBKTNV-1" source="JzfOXZyKx7kJxtPWHxZc-3">
          <mxGeometry width="50" height="50" relative="1" as="geometry">
            <mxPoint x="330" y="440" as="sourcePoint" />
            <mxPoint x="320" y="460" as="targetPoint" />
          </mxGeometry>
        </mxCell>
        <mxCell id="JzfOXZyKx7kJxtPWHxZc-27" value="" style="endArrow=classic;startArrow=classic;html=1;rounded=0;exitX=0.904;exitY=-0.002;exitDx=0;exitDy=0;exitPerimeter=0;entryX=0;entryY=0.882;entryDx=0;entryDy=0;entryPerimeter=0;" edge="1" parent="WIyWlLk6GJQsqaUBKTNV-1" source="JzfOXZyKx7kJxtPWHxZc-9" target="JzfOXZyKx7kJxtPWHxZc-7">
          <mxGeometry width="50" height="50" relative="1" as="geometry">
            <mxPoint x="460" y="460" as="sourcePoint" />
            <mxPoint x="510" y="410" as="targetPoint" />
          </mxGeometry>
        </mxCell>
        <mxCell id="JzfOXZyKx7kJxtPWHxZc-28" value="" style="endArrow=classic;html=1;rounded=0;entryX=0.5;entryY=0;entryDx=0;entryDy=0;" edge="1" parent="WIyWlLk6GJQsqaUBKTNV-1" target="JzfOXZyKx7kJxtPWHxZc-0">
          <mxGeometry width="50" height="50" relative="1" as="geometry">
            <mxPoint x="325" y="51" as="sourcePoint" />
            <mxPoint x="370" y="60" as="targetPoint" />
          </mxGeometry>
        </mxCell>
        <mxCell id="JzfOXZyKx7kJxtPWHxZc-30" value="" style="endArrow=classic;html=1;rounded=0;entryX=0.999;entryY=0.868;entryDx=0;entryDy=0;entryPerimeter=0;exitX=0;exitY=0.186;exitDx=0;exitDy=0;exitPerimeter=0;" edge="1" parent="WIyWlLk6GJQsqaUBKTNV-1" source="JzfOXZyKx7kJxtPWHxZc-21" target="JzfOXZyKx7kJxtPWHxZc-14">
          <mxGeometry width="50" height="50" relative="1" as="geometry">
            <mxPoint x="600" as="sourcePoint" />
            <mxPoint x="650" y="-50" as="targetPoint" />
          </mxGeometry>
        </mxCell>
      </root>
    </mxGraphModel>
  </diagram>
</mxfile>
